<?xml version="1.0" standalone="no"?>
<!DOCTYPE svg PUBLIC "-//W3C//DTD SVG 20010904//EN"
 "http://www.w3.org/TR/2001/REC-SVG-20010904/DTD/svg10.dtd">
<svg version="1.0" xmlns="http://www.w3.org/2000/svg"
 width="260.000000pt" height="260.000000pt" viewBox="0 0 260.000000 260.000000"
 preserveAspectRatio="xMidYMid meet">
<metadata>
Created by potrace 1.11, written by Peter Selinger 2001-2013
</metadata>
<g transform="translate(0.000000,260.000000) scale(0.100000,-0.100000)"
fill="#000000" stroke="none">
<path d="M1228 2372 c-60 -178 -84 -242 -89 -238 -2 2 -5 -10 -6 -27 -1 -17
-7 -34 -14 -37 -6 -4 -10 -10 -10 -14 1 -6 0 -12 -3 -31 -1 -5 -8 -23 -14 -39
-7 -16 -14 -38 -16 -49 -1 -12 -8 -23 -14 -25 -6 -2 -8 -10 -5 -19 4 -10 2
-14 -4 -10 -6 4 -9 -3 -7 -18 1 -14 -4 -31 -11 -39 -8 -7 -11 -16 -8 -20 3 -3
0 -12 -7 -21 -7 -8 -9 -15 -5 -15 4 0 2 -7 -5 -15 -7 -8 -10 -15 -6 -15 4 0
-3 -18 -14 -40 -11 -22 -18 -40 -14 -40 4 0 1 -6 -5 -13 -6 -8 -7 -18 -3 -22
4 -5 1 -5 -5 -1 -7 4 -13 3 -13 -2 0 -4 -13 -8 -30 -8 -16 0 -30 4 -30 10 0 6
-5 4 -11 -4 -8 -12 -9 -9 -4 9 6 19 4 23 -8 18 -8 -3 -24 1 -36 9 -11 8 -21
11 -21 5 0 -5 6 -11 13 -14 6 -2 8 -8 4 -13 -5 -5 -15 -1 -23 10 -11 16 -14
17 -14 4 0 -19 27 -31 43 -21 20 12 36 12 31 -1 -6 -15 -154 -18 -154 -2 0 6
-8 2 -17 -9 -15 -19 -15 -19 -9 6 4 19 1 31 -12 40 -15 13 -16 12 -4 -3 11
-13 11 -21 2 -39 -9 -15 -14 -18 -20 -9 -4 6 -10 11 -14 11 -20 -3 -18 2 4 8
l25 7 -27 6 c-23 4 -26 2 -22 -20 4 -21 2 -23 -9 -14 -8 7 -17 9 -20 5 -9 -8
-57 -11 -57 -3 0 3 -13 5 -30 5 -16 0 -30 -2 -30 -5 0 -10 -105 -5 -112 5 -5
7 -8 7 -8 0 0 -6 -55 -10 -146 -10 -80 0 -148 -3 -150 -6 -2 -3 10 -16 27 -28
16 -12 27 -26 24 -31 -3 -6 0 -7 8 -4 8 3 23 -6 34 -20 11 -14 23 -23 26 -19
4 3 9 -2 13 -11 3 -9 10 -16 16 -16 15 0 40 -29 33 -39 -3 -5 0 -13 6 -17 8
-4 9 -3 5 4 -4 7 -1 12 8 12 8 0 16 -4 18 -8 2 -4 20 -21 41 -36 23 -18 36
-35 33 -43 -3 -8 -1 -11 4 -8 9 6 49 -11 60 -24 3 -4 25 -22 50 -41 49 -37 72
-57 54 -47 -12 7 -29 -21 -19 -31 3 -3 5 0 5 6 0 7 8 12 19 12 22 0 44 -23 33
-35 -4 -5 1 -5 11 -2 11 4 20 1 23 -8 3 -8 14 -17 25 -20 22 -7 25 -35 6 -54
-8 -9 -8 -12 0 -7 6 3 13 0 16 -6 3 -10 8 -10 18 1 12 12 12 13 0 6 -10 -6
-12 -4 -6 5 6 9 4 11 -6 5 -12 -8 -12 -6 0 8 16 20 22 22 18 5 -1 -7 4 -12 11
-10 8 1 11 -2 6 -9 -5 -9 -2 -10 9 -6 10 4 16 2 14 -6 -1 -7 4 -11 11 -9 8 1
11 -1 8 -6 -3 -5 5 -15 18 -22 18 -9 23 -19 19 -39 -2 -14 -5 -34 -6 -43 -1
-12 -7 -16 -19 -13 -26 9 -44 -31 -24 -54 16 -17 14 -57 -3 -74 -5 -5 -7 -16
-4 -23 4 -10 0 -12 -11 -8 -9 3 -16 1 -16 -5 0 -6 4 -11 9 -11 5 0 7 -9 4 -20
-3 -11 -8 -18 -12 -16 -3 2 -7 -8 -7 -22 -2 -36 -11 -71 -23 -86 -5 -6 -9 -14
-9 -19 -1 -22 -15 -67 -20 -63 -4 2 -8 -6 -8 -17 -1 -12 -4 -31 -7 -42 -3 -11
-6 -24 -6 -28 -1 -5 -4 -6 -8 -4 -5 3 -8 -7 -9 -21 -1 -15 -20 -85 -43 -155
-22 -71 -41 -131 -41 -134 0 -2 13 5 29 16 16 12 34 21 40 21 6 0 11 5 11 10
0 6 7 10 15 10 8 0 15 5 15 11 0 5 4 8 9 5 5 -3 12 1 15 10 3 8 10 12 16 9 6
-3 13 0 16 9 3 8 14 13 24 11 14 -3 17 1 13 13 -3 9 -3 14 2 10 4 -4 14 -1 21
7 8 7 24 11 36 9 13 -2 17 -2 11 2 -17 7 -17 27 -1 22 7 -3 23 7 35 20 20 22
28 22 24 0 0 -4 7 -4 16 -1 11 4 13 8 5 11 -16 5 -15 22 1 22 7 0 22 8 33 18
11 10 26 16 34 14 8 -3 12 -1 8 3 -4 4 5 17 20 29 14 11 27 19 28 16 1 -3 11
4 23 14 12 11 21 15 21 10 0 -5 5 -2 10 6 5 8 15 15 22 15 7 1 12 7 10 15 -2
8 0 12 4 8 4 -4 12 0 19 9 10 14 12 13 10 -8 -2 -14 -8 -23 -15 -21 -11 3 -11
0 -1 -12 11 -13 17 -13 46 -1 29 13 35 13 46 -1 9 -12 14 -12 20 -2 4 7 4 17
-2 24 -6 7 -2 17 11 29 22 20 28 8 8 -14 -9 -9 -9 -12 -1 -7 6 3 14 0 17 -6 4
-9 5 -8 5 2 -1 8 2 26 6 39 l8 24 18 -24 c10 -13 19 -19 19 -12 0 6 -4 15 -10
18 -5 3 -10 11 -10 17 0 6 7 5 18 -3 9 -7 14 -10 10 -5 -3 4 2 16 13 27 11 11
17 25 13 30 -4 8 -9 7 -15 -2 -4 -7 -6 -16 -3 -20 2 -4 -3 -10 -11 -13 -12 -4
-13 -2 -6 12 6 11 5 24 -2 37 -9 18 -9 19 6 6 9 -7 17 -11 17 -7 0 4 11 -1 25
-10 14 -9 22 -21 18 -27 -4 -6 0 -8 11 -4 11 4 15 3 10 -4 -4 -8 1 -9 15 -4
20 6 26 -3 22 -28 -1 -5 4 -7 11 -4 19 6 48 -11 48 -29 0 -8 -5 -12 -10 -9 -6
4 -7 11 -4 17 4 7 2 8 -5 4 -16 -10 -63 22 -55 37 4 7 4 9 0 5 -4 -3 -8 -10
-7 -15 0 -4 -7 -18 -15 -30 -8 -13 -10 -23 -4 -23 5 0 10 5 10 11 0 5 4 7 10
4 6 -3 7 1 4 10 -5 13 -2 13 24 -2 20 -11 27 -20 19 -25 -6 -4 -15 -2 -20 5
-6 8 -7 7 -4 -3 2 -8 8 -14 13 -13 5 1 15 3 23 5 8 2 18 -8 22 -22 l8 -25 -1
25 c-1 42 2 51 12 45 5 -3 7 -12 4 -19 -8 -20 24 -42 39 -27 9 10 8 11 -4 6
-19 -7 -35 10 -19 20 5 3 10 1 10 -4 0 -6 3 -10 8 -9 15 5 70 -36 65 -49 -3
-7 0 -13 6 -13 6 0 11 5 11 11 0 8 5 7 15 -1 9 -7 13 -20 10 -28 -4 -12 -3
-12 9 -3 11 9 18 7 34 -13 10 -14 23 -22 26 -18 4 4 14 -2 22 -12 8 -11 14
-16 14 -10 0 5 4 5 8 -1 9 -13 81 -59 107 -69 16 -6 17 -9 5 -17 -11 -8 -10
-9 8 -4 13 4 22 2 22 -4 0 -6 7 -11 15 -11 8 0 15 -4 15 -9 0 -5 9 -11 21 -14
12 -3 18 -10 14 -17 -4 -6 -1 -9 7 -8 7 2 12 -2 11 -9 -2 -7 4 -10 12 -7 8 3
27 -3 42 -13 51 -36 52 -36 43 -3 -5 16 -6 30 -2 30 4 0 2 4 -5 8 -6 4 -14 20
-17 35 -2 14 -7 31 -11 37 -3 5 -1 10 5 10 6 0 4 7 -5 16 -9 9 -14 23 -11 31
3 8 1 11 -4 8 -6 -3 -11 1 -11 9 -3 29 -4 34 -11 42 -11 11 -10 26 1 19 5 -3
13 -1 16 5 4 6 3 10 -2 9 -27 -5 -39 14 -48 71 0 3 -4 11 -9 19 -6 10 -5 12 2
7 7 -4 12 -2 12 3 0 6 -4 11 -8 11 -5 0 -14 11 -20 25 -7 15 -8 25 -2 25 6 0
10 5 10 11 0 5 -4 8 -9 5 -5 -3 -12 6 -16 22 -5 15 -10 34 -12 42 -3 8 -4 24
-4 34 0 11 -6 24 -14 30 -13 10 -13 15 0 40 19 35 19 36 -1 36 -10 0 -14 -6
-10 -15 3 -8 1 -15 -4 -15 -6 0 -11 10 -11 23 -3 46 -4 52 -16 50 -6 -1 -10 5
-8 15 1 9 -3 23 -9 31 -8 11 -8 13 2 7 8 -5 12 0 12 15 0 18 2 20 15 9 9 -7
12 -16 8 -19 -10 -7 -11 -27 -2 -35 3 -4 12 0 19 9 17 21 29 19 23 -4 -6 -23
8 -33 27 -19 12 8 11 9 -4 4 -15 -5 -17 -2 -13 14 7 26 -9 36 -30 18 -14 -11
-15 -10 -9 10 5 14 3 22 -4 22 -6 0 -8 5 -4 11 4 8 9 8 17 0 6 -6 16 -11 21
-11 6 0 3 5 -6 11 -19 11 -25 39 -8 39 6 0 10 -7 10 -15 0 -8 5 -15 10 -15 7
0 7 7 0 20 -8 15 -17 19 -31 15 -18 -6 -19 -5 -9 14 13 25 5 42 -15 35 -8 -4
-12 -10 -9 -15 3 -5 11 -6 17 -2 7 4 4 -5 -6 -20 -16 -25 -15 -32 6 -28 5 1 7
-4 5 -10 -5 -15 -36 -20 -44 -8 -3 6 0 16 6 24 15 18 -1 20 -18 3 -7 -7 -12
-8 -12 -4 0 4 10 17 23 28 20 18 20 19 2 14 -18 -5 -18 -5 -4 6 9 7 15 19 13
26 -1 7 0 8 3 2 7 -14 23 -12 19 3 -1 6 -1 9 1 4 3 -4 9 -4 14 -1 6 3 5 12 -3
22 -8 10 -9 13 -1 9 7 -4 17 0 23 10 11 17 11 17 6 1 -3 -11 2 -22 16 -29 11
-6 18 -7 15 -2 -3 5 3 14 14 21 10 7 19 8 19 3 0 -6 -4 -13 -10 -16 -5 -3 -10
-12 -10 -18 0 -7 10 1 22 16 16 22 23 26 30 15 8 -10 9 -10 5 2 -2 8 -12 13
-22 12 -16 -3 -17 -2 -6 12 13 15 16 15 35 -1 12 -10 15 -11 9 -3 -15 16 -17
34 -4 26 5 -3 11 1 14 8 3 8 16 20 28 26 20 11 21 10 16 -9 -3 -12 -1 -19 4
-15 6 3 9 13 8 22 -3 34 1 53 11 47 9 -6 15 8 11 29 -1 5 6 5 16 2 9 -4 14 -4
10 0 -4 4 1 16 10 27 10 11 12 17 6 13 -8 -4 -13 -2 -13 4 0 7 7 9 16 6 9 -3
18 -6 21 -6 4 0 -2 -9 -11 -19 -12 -13 -14 -21 -6 -26 6 -4 9 -1 8 7 -2 7 3
12 10 10 8 -1 11 2 6 9 -5 8 -2 10 9 6 11 -4 15 -1 12 13 -5 28 14 35 31 14
14 -18 14 -18 4 4 -6 12 -14 22 -19 22 -13 0 -32 -26 -24 -33 3 -4 2 -7 -4 -7
-6 0 -17 8 -24 18 -7 9 -10 14 -5 10 5 -4 28 12 53 35 25 23 53 40 62 39 9 -2
13 -1 9 4 -4 4 -3 13 3 21 9 10 15 11 26 2 10 -9 12 -9 8 2 -3 9 18 33 60 67
66 52 82 62 69 40 -4 -7 -3 -8 4 -4 6 4 8 14 5 24 -3 9 -3 14 1 11 6 -6 56 35
56 44 0 2 -37 3 -82 2 -46 0 -89 4 -95 8 -7 5 -13 6 -13 1 0 -12 -123 -11
-132 1 -5 7 -8 7 -8 0 0 -5 -17 -9 -37 -8 -21 1 -38 2 -38 3 0 1 -12 3 -27 4
-16 1 -28 -1 -28 -5 0 -4 -16 -3 -35 1 -19 4 -35 4 -35 0 0 -5 -9 -6 -20 -3
-11 3 -17 10 -13 17 3 6 0 6 -8 -1 -17 -17 -59 -17 -59 0 -1 7 -6 6 -14 -5
-12 -16 -14 -16 -31 0 -10 9 -15 11 -11 4 6 -9 -1 -12 -28 -10 -24 1 -35 6
-32 15 3 8 -1 10 -11 6 -11 -4 -14 -2 -9 5 4 7 2 12 -3 12 -6 0 -11 -5 -11
-11 0 -6 -7 -4 -15 5 -8 8 -24 18 -35 21 -11 4 -17 11 -14 17 4 7 2 8 -4 4
-18 -11 -14 4 6 22 10 10 12 13 5 9 -6 -5 -17 -6 -23 -2 -6 4 -10 3 -9 -2 4
-23 -2 -43 -11 -38 -6 4 -10 12 -9 18 3 27 -2 36 -21 34 -21 -1 -26 -12 -10
-22 6 -3 10 -1 10 5 0 6 5 8 11 4 8 -5 8 -9 -1 -14 -9 -5 -9 -9 -1 -14 6 -4 8
-12 5 -18 -5 -7 -2 -8 7 -3 8 5 5 -2 -6 -16 -11 -13 -21 -26 -23 -28 -1 -3 -1
4 1 15 1 10 6 24 10 30 3 6 3 14 0 18 -4 4 -13 -4 -21 -16 -9 -16 -12 -17 -7
-4 3 11 -1 27 -11 37 -9 10 -13 22 -10 28 4 5 2 12 -4 16 -6 4 -8 10 -5 15 3
5 1 11 -5 15 -6 4 -8 11 -5 16 4 5 1 9 -5 9 -7 0 -10 6 -7 14 3 7 0 19 -6 25
-6 6 -7 11 -3 11 5 0 3 6 -3 14 -9 11 -9 16 0 22 8 5 9 3 4 -6 -6 -9 -4 -11 5
-5 9 6 11 4 5 -5 -5 -9 -4 -11 4 -6 17 11 -6 37 -26 29 -12 -5 -14 -1 -8 17 5
15 4 20 -4 16 -6 -4 -11 -4 -12 1 0 4 -3 17 -6 28 -2 11 -5 28 -6 38 -1 9 -5
17 -10 17 -4 0 -5 5 -2 10 4 6 11 8 16 5 5 -3 6 1 2 10 -4 13 -8 14 -14 4 -4
-8 -11 -11 -14 -7 -3 3 1 13 10 22 19 19 5 22 -14 4 -11 -11 -12 -9 -6 10 3
12 2 22 -3 22 -18 0 -21 40 -4 51 14 8 12 9 -8 3 -22 -6 -23 -5 -12 9 10 12
10 17 1 23 -8 5 -9 3 -4 -6 6 -9 4 -11 -4 -6 -7 5 -10 14 -7 22 3 8 1 14 -4
14 -6 0 -10 8 -10 18 0 10 -9 37 -20 61 -12 23 -22 55 -23 70 -1 16 -6 27 -11
23 -5 -3 -7 5 -4 16 4 14 2 20 -5 15 -7 -4 -8 0 -4 11 4 9 3 15 -2 11 -5 -3
-12 8 -16 25 -4 16 -10 30 -13 30 -4 0 -23 -49 -44 -108z m67 -472 c4 -6 -1
-7 -12 -4 -15 5 -14 2 4 -14 16 -14 21 -27 17 -46 -2 -14 0 -25 5 -24 5 2 10
-1 11 -7 1 -5 6 -16 12 -22 6 -7 7 -13 2 -13 -5 0 -2 -5 6 -10 11 -7 11 -10 2
-10 -7 0 -11 -4 -7 -9 3 -6 -1 -16 -8 -23 -12 -11 -12 -14 1 -24 15 -11 11
-44 -7 -44 -5 0 -16 11 -25 25 -13 19 -13 23 -2 19 9 -4 14 0 12 10 -3 19 -16
34 -16 17 0 -7 -5 -9 -12 -4 -26 15 -44 12 -45 -8 -2 -17 1 -18 13 -9 8 8 14
8 14 2 0 -17 -28 -22 -40 -6 -10 11 -10 17 0 29 8 9 9 20 4 28 -12 15 -11 38
1 57 10 15 15 42 16 74 0 18 1 18 15 -2 7 -11 11 -28 8 -36 -4 -12 -2 -15 9
-10 17 6 17 28 -1 46 -7 7 -12 16 -12 20 0 11 28 10 35 -2z m-85 -160 c0 -5
-5 -10 -11 -10 -5 0 -7 5 -4 10 3 6 8 10 11 10 2 0 4 -4 4 -10z m147 -24 c-3
-7 0 -19 6 -25 8 -8 8 -11 0 -11 -6 0 -13 6 -16 13 -4 13 2 37 10 37 3 0 3 -6
0 -14z m-147 -36 c0 -5 -4 -10 -10 -10 -5 0 -10 5 -10 10 0 6 5 10 10 10 6 0
10 -4 10 -10z m-6 -46 c-19 -21 -24 -23 -16 -8 6 12 8 25 4 29 -4 5 -2 5 5 1
6 -3 15 -1 18 5 4 5 9 8 12 6 2 -3 -8 -18 -23 -33z m171 26 c3 -6 -1 -7 -9 -4
-18 7 -21 14 -7 14 6 0 13 -4 16 -10z m305 -12 c19 -12 38 -22 42 -23 3 0 10
-4 15 -8 4 -5 -3 -7 -17 -5 -14 1 -33 12 -43 23 -10 11 -16 14 -12 8 3 -7 1
-13 -5 -13 -6 0 -9 -4 -6 -8 4 -6 -40 -9 -52 -3 -5 2 30 51 37 51 3 0 22 -10
41 -22z m-330 -18 c-12 -23 -16 -24 -26 -8 -4 7 -3 8 4 4 7 -4 12 -1 12 8 0 9
5 16 10 16 7 0 7 -6 0 -20z m-125 -10 c3 -5 1 -10 -4 -10 -6 0 -11 5 -11 10 0
6 2 10 4 10 3 0 8 -4 11 -10z m131 -18 c-17 -16 -18 -16 -5 5 7 12 15 20 18
17 3 -2 -3 -12 -13 -22z m-195 -19 c-12 -20 -14 -14 -5 12 4 9 9 14 11 11 3
-2 0 -13 -6 -23z m239 23 c0 -3 -4 -8 -10 -11 -5 -3 -10 -1 -10 4 0 6 5 11 10
11 6 0 10 -2 10 -4z m-186 -22 c3 -8 2 -12 -4 -9 -6 3 -10 1 -10 -6 0 -7 -2
-10 -5 -7 -5 5 4 38 10 38 2 0 6 -7 9 -16z m180 -29 c-4 -8 -8 -15 -10 -15 -2
0 -4 7 -4 15 0 8 4 15 10 15 5 0 7 -7 4 -15z m-224 -36 c0 -4 -9 -7 -19 -6
-11 0 -18 4 -16 7 6 9 35 8 35 -1z m233 -7 c15 -16 15 -18 -1 -18 -10 0 -18 8
-18 18 0 10 1 18 2 18 0 0 8 -8 17 -18z m-709 -102 c4 0 5 4 2 8 -3 5 1 9 9 9
8 0 12 -4 9 -8 -2 -4 4 -8 13 -8 44 -1 58 -5 66 -15 5 -8 10 -6 16 4 6 8 12
12 16 9 10 -11 -46 -58 -62 -52 -11 5 -12 7 -2 14 7 4 17 5 21 3 4 -3 8 -1 8
5 0 15 -14 21 -30 11 -9 -5 -20 -4 -29 3 -12 10 -13 9 -1 -13 24 -46 48 -71
54 -58 3 7 3 2 -1 -12 -5 -23 -5 -24 13 -10 18 14 18 14 5 -3 -8 -9 -11 -21
-7 -24 4 -4 11 -2 15 6 7 10 9 10 14 -2 7 -19 -30 -17 -42 2 -5 8 -11 9 -15 3
-9 -15 19 -33 53 -34 28 -1 29 -2 13 -15 -16 -14 -16 -14 1 -9 9 3 17 1 17 -5
0 -6 -8 -9 -17 -7 -10 2 -17 10 -16 16 2 7 -5 12 -15 12 -24 0 -58 35 -43 45
6 3 11 11 11 16 0 5 -11 2 -25 -7 -24 -15 -25 -15 -19 0 4 9 3 16 -2 15 -18
-3 -33 1 -46 14 -7 7 -30 25 -50 41 -21 15 -37 31 -37 34 3 20 -3 25 -12 12
-8 -12 -10 -12 -7 -1 5 16 65 24 73 10 4 -5 11 -9 17 -9 6 0 5 7 -3 18 -13 16
-13 16 7 0 11 -10 24 -18 28 -18z m1161 15 c6 -1 17 4 25 9 13 10 13 9 1 -6
-13 -17 -2 -26 12 -11 11 10 57 13 57 2 0 -5 4 -9 10 -9 5 0 8 6 6 13 -1 6 -1
9 1 4 3 -4 10 -4 16 -1 7 4 -4 -9 -23 -27 -19 -19 -39 -33 -44 -31 -4 3 -3 7
3 11 6 4 3 11 -9 19 -14 9 -20 9 -20 1 0 -8 -4 -9 -13 0 -8 6 -18 7 -22 3 -5
-4 -5 -1 -1 5 5 9 2 11 -9 6 -13 -5 -14 -7 -3 -14 7 -5 14 -13 14 -19 1 -5 2
-14 3 -18 0 -5 8 -9 16 -9 8 0 15 4 15 9 0 4 -7 8 -17 8 -20 0 -9 13 15 17 12
1 18 -5 19 -17 2 -18 -8 -25 -31 -21 -5 1 -6 -5 -2 -14 3 -9 2 -14 -3 -11 -4
3 -17 -4 -27 -15 -26 -28 -84 -70 -65 -46 15 19 1 23 -17 5 -9 -9 -12 -9 -12
0 0 7 5 12 11 12 5 0 7 5 4 10 -4 6 -10 8 -14 6 -4 -3 -8 1 -8 9 0 13 3 13 17
0 24 -22 36 -18 15 5 -10 11 -15 21 -12 21 4 1 13 2 20 3 6 1 10 8 8 16 -2 8
-4 21 -4 28 0 7 -5 11 -11 9 -6 -3 -10 -9 -9 -14 1 -5 -6 -9 -16 -10 -14 -1
-11 6 13 30 23 24 33 29 39 19 9 -13 27 -7 27 9 0 6 -5 7 -12 3 -7 -4 -8 -3
-4 5 4 6 13 8 19 4 7 -4 17 -8 22 -8z m-1042 -2 c-7 -2 -19 -2 -25 0 -7 3 -2
5 12 5 14 0 19 -2 13 -5z m103 -5 c4 -7 3 -8 -4 -4 -7 4 -12 1 -12 -8 0 -9 -5
-16 -10 -16 -7 0 -7 6 0 20 12 23 16 24 26 8z m608 4 c3 -5 -1 -9 -9 -9 -8 0
-12 4 -9 9 3 4 7 8 9 8 2 0 6 -4 9 -8z m126 4 c0 -3 -4 -8 -10 -11 -5 -3 -10
-1 -10 4 0 6 5 11 10 11 6 0 10 -2 10 -4z m6 -28 c-9 -12 -16 -19 -16 -15 0
11 24 47 28 42 2 -2 -3 -14 -12 -27z m49 22 c-3 -5 -12 -10 -18 -10 -7 0 -6 4
3 10 19 12 23 12 15 0z m25 -10 c-33 -26 -49 -26 -19 0 13 10 29 19 34 19 6 1
-1 -8 -15 -19z m-704 -2 c5 4 5 3 1 -2 -12 -15 -34 -15 -34 0 0 9 4 11 12 4 7
-5 16 -6 21 -2z m719 -17 c-16 -16 -32 -27 -35 -24 -4 4 50 52 60 53 3 0 -8
-13 -25 -29z m-670 10 c-9 -8 -36 -10 -30 -2 2 4 11 8 20 8 8 0 13 -3 10 -6z
m400 -2 c3 -3 -6 -5 -19 -5 -14 1 -28 4 -31 7 -3 3 6 5 19 5 14 -1 28 -4 31
-7z m123 -3 c-7 -8 -15 -12 -17 -11 -5 6 10 25 20 25 5 0 4 -6 -3 -14z m-758
-16 c-6 -11 -13 -20 -16 -20 -2 0 0 9 6 20 6 11 13 20 16 20 2 0 0 -9 -6 -20z
m687 5 c0 -8 -4 -12 -9 -9 -5 3 -6 10 -3 15 9 13 12 11 12 -6z m43 11 c0 -2
-8 -10 -17 -17 -16 -13 -17 -12 -4 4 13 16 21 21 21 13z m120 -31 c0 -5 -5 -3
-10 5 -5 8 -10 20 -10 25 0 6 5 3 10 -5 5 -8 10 -19 10 -25z m-828 3 c-7 -7
-12 -8 -12 -2 0 14 12 26 19 19 2 -3 -1 -11 -7 -17z m68 12 c0 -5 -4 -10 -10
-10 -5 0 -10 5 -10 10 0 6 5 10 10 10 6 0 10 -4 10 -10z m570 6 c0 -2 -8 -10
-17 -17 -16 -13 -17 -12 -4 4 13 16 21 21 21 13z m605 -123 c-11 -7 -24 -13
-29 -13 -6 0 -5 -4 3 -9 11 -7 9 -10 -7 -15 -12 -4 -19 -13 -16 -21 3 -8 -4
-19 -18 -26 -13 -6 -25 -15 -28 -20 -3 -4 -12 -9 -20 -11 -8 -2 -23 -13 -33
-26 -10 -12 -26 -26 -35 -31 -14 -7 -17 -4 -19 17 -1 18 1 21 8 11 8 -13 13
-5 10 14 -1 5 3 6 9 2 5 -3 13 1 16 9 3 9 11 13 17 9 7 -4 8 1 4 13 -7 18 -6
18 6 2 8 -10 17 -15 20 -11 4 3 2 12 -5 20 -8 11 -7 12 5 7 9 -3 26 1 39 10
26 18 17 21 -15 5 -21 -10 -21 -10 -3 5 11 9 24 16 29 16 4 0 5 6 1 13 -4 6
-4 9 1 5 4 -4 19 6 33 22 14 16 30 26 35 23 6 -3 2 -12 -8 -20z m-375 -13 c-8
-5 -11 -10 -6 -10 5 0 2 -8 -7 -18 -10 -10 -14 -22 -10 -27 5 -4 2 -5 -5 -1
-7 4 -10 11 -7 16 3 5 -3 11 -12 14 -11 3 -8 4 7 3 14 -1 25 4 26 11 2 20 4
22 17 22 8 0 7 -4 -3 -10z m-815 -30 c3 -6 -1 -7 -9 -4 -18 7 -21 14 -7 14 6
0 13 -4 16 -10z m-34 -14 c5 3 9 0 9 -6 0 -15 -23 -7 -26 8 -1 7 0 8 3 2 2 -5
9 -8 14 -4z m760 -23 c-12 -20 -14 -14 -5 12 4 9 9 14 11 11 3 -2 0 -13 -6
-23z m-713 -12 c-7 -9 -13 -17 -14 -19 -1 -1 -7 4 -14 13 -11 13 -10 14 5 9
11 -5 16 -4 12 3 -3 5 0 10 8 10 12 0 12 -3 3 -16z m679 4 c0 -8 -4 -12 -9 -9
-5 3 -6 10 -3 15 9 13 12 11 12 -6z m-631 -17 c4 -7 3 -8 -5 -4 -6 4 -20 2
-29 -6 -15 -12 -16 -11 -3 5 16 20 27 22 37 5z m11 -32 c0 -15 -21 -16 -34 -1
-4 4 -3 5 4 1 6 -3 14 -2 18 4 8 14 12 13 12 -4z m600 -13 c0 -9 -4 -10 -14
-2 -7 6 -13 12 -13 14 0 1 6 2 13 2 8 0 14 -6 14 -14z m-563 -34 c3 -3 -5 -5
-19 -5 -13 0 -22 3 -19 7 4 8 30 6 38 -2z m561 -59 c3 -5 1 -10 -4 -10 -6 0
-11 5 -11 10 0 6 2 10 4 10 3 0 8 -4 11 -10z m-570 -20 c3 -6 -1 -7 -9 -4 -18
7 -21 14 -7 14 6 0 13 -4 16 -10z m554 -47 c-13 -15 -12 -16 6 -9 15 5 17 4 8
-5 -18 -18 -35 -2 -21 21 7 11 14 17 17 15 2 -3 -2 -12 -10 -22z m-833 -25 c5
-7 3 -8 -6 -3 -9 5 -10 2 -5 -14 7 -22 -10 -30 -18 -8 -10 28 14 49 29 25z
m246 -13 c3 -13 1 -22 -3 -19 -9 5 -13 44 -5 44 2 0 6 -11 8 -25z m641 -11 c8
-8 -21 -64 -33 -64 -5 0 -12 4 -15 10 -4 6 1 7 11 3 12 -4 15 -3 10 5 -4 7 -3
12 2 12 6 0 12 7 16 15 4 10 -1 15 -15 15 -11 0 -18 -4 -14 -9 3 -5 1 -12 -4
-15 -7 -5 -8 11 -2 32 2 5 38 2 44 -4z m-677 -40 c-3 -8 -10 -12 -16 -9 -5 3
-10 2 -10 -4 0 -5 6 -12 13 -14 9 -4 9 -6 0 -6 -7 -1 -17 8 -23 18 -9 17 -7
19 10 16 15 -3 20 2 21 18 0 12 3 16 6 9 3 -7 2 -20 -1 -28z m404 32 c0 -2 -8
-10 -17 -17 -16 -13 -17 -12 -4 4 13 16 21 21 21 13z m-49 -23 c13 -16 12 -17
-3 -4 -17 13 -22 21 -14 21 2 0 10 -8 17 -17z m-334 -20 c-1 -10 -6 -24 -10
-30 -5 -7 -5 -18 -2 -23 3 -6 0 -13 -8 -16 -19 -7 -15 -39 4 -40 24 -1 49 -16
43 -25 -3 -5 0 -9 5 -9 6 0 11 2 11 4 0 2 3 12 6 20 4 12 2 15 -9 10 -8 -3
-18 -1 -22 5 -4 7 0 8 11 4 11 -4 15 -2 11 4 -4 6 0 16 8 23 8 7 15 9 15 4 0
-5 5 -2 11 6 8 12 9 10 4 -8 -6 -22 -5 -23 14 -13 12 7 21 8 21 4 0 -4 5 -1
10 7 7 12 11 12 20 2 5 -6 7 -10 4 -7 -4 3 -13 0 -21 -6 -7 -6 -13 -8 -13 -5
0 4 -9 2 -20 -4 -16 -9 -22 -8 -26 5 -3 8 -10 12 -15 9 -5 -2 -3 -13 3 -24 7
-10 16 -16 20 -14 4 3 8 1 8 -4 0 -5 -13 -15 -30 -22 -16 -7 -27 -17 -23 -23
3 -6 1 -7 -5 -3 -7 4 -12 2 -12 -3 0 -6 -5 -11 -11 -11 -5 0 -8 4 -5 9 4 5 3
11 -1 14 -5 2 -2 2 5 0 8 -1 10 2 6 9 -5 7 -3 8 5 3 10 -6 11 -3 2 13 -6 11
-20 20 -30 19 -15 -1 -17 -5 -10 -18 6 -11 5 -20 -1 -24 -9 -6 -14 8 -11 28 0
4 -4 7 -10 7 -6 0 -8 -7 -5 -16 4 -10 2 -13 -6 -8 -7 5 -8 3 -3 -6 5 -9 4 -11
-4 -6 -8 5 -8 0 1 -19 l12 -26 18 23 18 23 0 -22 c0 -14 -6 -23 -15 -23 -8 0
-15 -6 -15 -12 0 -8 -5 -6 -10 4 -8 13 -20 16 -48 9 -2 -1 0 -6 3 -11 5 -8 11
-7 21 1 11 9 14 8 14 -5 0 -9 -6 -15 -12 -13 -7 1 -12 -4 -10 -11 1 -8 -2 -11
-8 -7 -5 3 -10 0 -11 -7 0 -10 -2 -10 -6 0 -2 6 -9 12 -14 12 -6 0 -8 -4 -5
-9 3 -5 -1 -14 -9 -21 -10 -9 -15 -9 -15 -1 0 6 5 11 11 11 5 0 7 5 4 10 -3 6
1 13 10 16 13 6 14 8 3 15 -11 7 -11 9 1 9 11 0 11 3 1 15 -9 10 -9 15 -1 15
6 0 11 -5 11 -11 0 -5 5 -7 10 -4 6 4 8 11 4 16 -3 6 2 17 12 25 18 14 18 15
-6 10 -14 -3 -19 -3 -12 0 6 3 10 9 8 13 -3 4 1 8 9 8 8 0 15 -5 15 -10 0 -6
2 -8 5 -5 12 11 -7 37 -23 31 -14 -4 -14 -3 -3 5 10 7 21 7 32 1 26 -14 33
-11 18 8 -11 12 -11 17 -2 20 10 4 9 8 -2 20 -8 8 -15 20 -15 26 0 6 7 1 16
-11 8 -12 20 -22 26 -22 7 0 7 5 -1 14 -9 11 -8 15 4 20 8 3 15 9 14 13 -2 15
1 33 6 33 3 0 4 -8 2 -17z m409 -12 c1 -14 -1 -20 -3 -13 -3 6 -9 10 -13 7 -5
-3 -12 0 -16 6 -5 8 -3 9 6 4 9 -6 12 -4 8 7 -4 8 -1 15 5 15 7 0 13 -12 13
-26z m255 6 c-9 -11 -8 -17 2 -26 8 -6 18 -7 22 -3 5 4 5 1 1 -6 -4 -7 -11
-10 -16 -7 -5 3 -11 1 -15 -5 -3 -5 1 -10 9 -10 9 0 16 -4 16 -10 0 -5 -6 -9
-12 -7 -7 1 -13 -7 -13 -18 -1 -11 -7 -19 -14 -17 -7 1 -10 -2 -6 -8 3 -6 11
-8 16 -5 5 4 9 1 9 -4 0 -14 -13 -14 -28 1 -7 7 -12 9 -12 5 0 -4 15 -17 33
-28 22 -14 25 -19 10 -14 -13 4 -23 2 -23 -4 0 -5 13 -8 29 -6 23 3 29 0 25
-10 -6 -15 -25 -16 -35 -1 -4 4 -10 3 -13 -3 -6 -10 0 -13 20 -10 4 0 11 -5
15 -13 7 -10 9 -10 9 0 0 7 4 11 10 7 5 -3 8 -11 6 -18 -1 -7 -1 -8 2 -3 2 4
8 3 12 -4 5 -8 9 -6 14 6 4 10 4 15 0 11 -8 -8 -34 11 -34 25 0 21 43 -23 46
-46 3 -30 -11 -43 -23 -22 -4 8 -12 15 -18 17 -24 4 -103 64 -98 73 4 5 -1 7
-10 3 -10 -4 -16 -2 -14 6 1 7 -6 11 -15 11 -11 -1 -14 4 -11 14 4 10 2 13 -5
8 -6 -3 -13 -2 -17 4 -4 6 -10 8 -15 5 -5 -3 -12 0 -16 6 -4 8 -3 9 4 5 12 -7
16 5 13 33 -2 7 3 10 9 6 6 -3 10 -12 9 -18 -3 -25 1 -38 11 -32 5 3 7 13 4
23 -4 12 -3 13 3 4 5 -7 17 -10 25 -7 9 4 19 1 24 -6 4 -7 3 -10 -4 -6 -13 9
-44 -2 -37 -14 3 -4 13 -5 22 -2 12 5 15 2 10 -10 -4 -11 -2 -14 8 -10 8 3 13
9 10 13 -3 5 2 16 11 24 14 14 14 19 2 34 -12 16 -11 16 6 2 18 -14 18 -13 12
8 -5 14 -3 22 4 22 6 0 8 5 5 10 -4 6 -11 7 -17 4 -6 -4 -3 4 8 18 10 14 21
24 23 22 2 -2 -1 -10 -8 -17z m-438 -1 c11 1 16 0 13 -4 -13 -12 -36 -10 -48
6 -11 15 -11 15 2 6 8 -6 23 -10 33 -8z m-78 -26 c3 -6 -1 -7 -9 -4 -18 7 -21
14 -7 14 6 0 13 -4 16 -10z m348 -12 c4 1 7 -2 7 -8 0 -15 -12 -12 -40 11
l-25 20 25 -12 c14 -7 28 -12 33 -11z m-293 2 c0 -5 -2 -10 -4 -10 -3 0 -8 5
-11 10 -3 6 -1 10 4 10 6 0 11 -4 11 -10z m250 -10 c8 -5 11 -10 5 -10 -5 0
-17 5 -25 10 -8 5 -10 10 -5 10 6 0 17 -5 25 -10z m-520 -20 c0 -5 -2 -10 -4
-10 -3 0 -8 5 -11 10 -3 6 -1 10 4 10 6 0 11 -4 11 -10z m555 -11 c11 -16 1
-19 -13 -3 -7 8 -8 14 -3 14 5 0 13 -5 16 -11z m210 2 c-3 -5 -1 -12 5 -16 6
-4 8 -11 5 -16 -4 -5 0 -9 7 -9 7 -1 2 -7 -12 -15 l-25 -15 27 4 c22 4 26 1
23 -15 -2 -10 1 -19 7 -19 6 0 9 -2 6 -5 -3 -4 -22 5 -41 18 -27 18 -33 27
-24 36 8 8 7 11 -3 11 -9 0 -8 5 6 15 16 13 16 14 2 9 -11 -4 -18 -1 -18 6 0
6 4 9 9 5 5 -3 12 -1 16 5 3 5 8 10 11 10 3 0 3 -4 -1 -9z m-578 -27 c-3 -3
-12 -4 -19 -1 -8 3 -5 6 6 6 11 1 17 -2 13 -5z m-117 -24 c0 -5 -4 -10 -10
-10 -5 0 -10 5 -10 10 0 6 5 10 10 10 6 0 10 -4 10 -10z m-40 -34 c0 -3 -4 -8
-10 -11 -5 -3 -10 -1 -10 4 0 6 5 11 10 11 6 0 10 -2 10 -4z m325 -75 c3 -18
-18 -41 -38 -41 -10 0 -2 35 12 50 19 20 20 19 26 -9z m-50 -21 c3 -5 1 -10
-4 -10 -6 0 -11 5 -11 10 0 6 2 10 4 10 3 0 8 -4 11 -10z m-29 -21 c3 -22 5
-23 14 -9 7 12 11 12 20 2 5 -6 7 -10 3 -7 -3 3 -17 -5 -30 -17 -17 -16 -20
-24 -12 -35 14 -16 -2 -18 -18 -2 -8 8 -20 6 -44 -7 -31 -15 -33 -15 -20 -1 7
10 10 17 6 17 -4 0 -2 6 4 13 6 8 7 18 3 22 -4 5 -2 5 4 2 7 -4 17 0 24 8 7 8
19 15 27 15 8 0 11 5 7 13 -4 7 -3 9 2 4 5 -5 10 -13 10 -18z m564 11 c0 -5
-5 -10 -11 -10 -5 0 -7 5 -4 10 3 6 8 10 11 10 2 0 4 -4 4 -10z"/>
<path d="M1246 1854 c-3 -9 -4 -19 -1 -24 3 -4 -2 -13 -10 -20 -14 -11 -11
-15 22 -30 24 -10 33 -19 25 -24 -7 -4 -12 -2 -12 3 0 6 -5 11 -10 11 -6 0 -5
-8 2 -20 7 -11 18 -18 24 -16 6 2 17 -1 23 -7 12 -12 12 -13 15 26 2 15 -1 30
-6 33 -4 3 -5 11 -2 17 4 7 3 9 -1 4 -5 -4 -17 1 -28 10 -10 10 -22 17 -26 16
-3 -2 -5 6 -4 17 3 24 -3 26 -11 4z m51 -56 c20 -22 27 -74 8 -58 -6 5 -16 6
-21 2 -4 -4 -3 1 5 10 11 15 8 19 -19 33 -17 9 -28 19 -26 24 9 14 35 8 53
-11z"/>
<path d="M1270 1802 c0 -4 10 -13 23 -21 22 -14 22 -14 3 8 -20 22 -26 25 -26
13z"/>
<path d="M1226 1771 c-3 -4 4 -17 16 -27 21 -19 21 -19 10 2 -6 12 -8 24 -5
28 3 3 1 6 -5 6 -6 0 -13 -4 -16 -9z"/>
<path d="M1310 1675 c0 -8 5 -15 10 -15 6 0 10 7 10 15 0 8 -4 15 -10 15 -5 0
-10 -7 -10 -15z"/>
<path d="M1620 1635 c-9 -10 -9 -15 -1 -15 6 0 11 5 11 11 0 5 5 7 10 4 6 -3
10 -1 10 4 0 16 -16 13 -30 -4z"/>
<path d="M605 1401 c1 -9 5 -15 8 -14 3 1 23 -14 43 -32 20 -19 41 -32 46 -29
4 3 8 -1 8 -8 0 -11 2 -10 9 0 6 11 10 10 15 -4 5 -13 9 -15 18 -6 9 9 5 19
-16 41 -15 16 -28 32 -27 35 4 22 -1 28 -10 14 -5 -10 -15 -18 -22 -18 -8 0
-8 3 2 9 9 6 10 11 2 15 -6 4 -11 2 -11 -5 0 -8 -4 -8 -16 2 -23 19 -52 19
-49 0z m92 -20 c9 8 14 9 10 3 -3 -6 5 -22 18 -34 14 -13 25 -28 25 -34 0 -6
-5 -3 -10 6 -6 9 -19 15 -30 13 -12 -2 -26 5 -35 18 -8 12 -19 21 -23 20 -4
-2 -7 0 -7 5 0 4 -4 14 -9 22 -5 8 3 4 17 -9 23 -21 29 -22 44 -10z"/>
<path d="M685 1360 c-3 -5 -5 -10 -3 -11 33 -8 38 -7 27 7 -14 17 -16 17 -24
4z"/>
<path d="M1907 1409 c13 -12 31 -15 30 -4 -1 5 -10 10 -20 10 -10 1 -14 -2
-10 -6z"/>
<path d="M1790 1401 c0 -6 6 -11 13 -11 8 0 7 -4 -3 -10 -8 -5 -10 -10 -3 -10
6 0 10 -6 9 -12 -3 -23 -17 -38 -29 -32 -7 3 -2 -3 11 -14 15 -14 18 -22 10
-25 -7 -3 -8 -6 -2 -6 5 -1 23 13 40 30 23 24 25 29 9 23 -16 -6 -18 -5 -7 7
17 19 15 32 -5 25 -15 -5 -15 -4 1 9 11 8 15 16 8 16 -21 2 -27 4 -39 12 -8 5
-13 4 -13 -2z m41 -54 c-5 -5 -7 -15 -5 -22 7 -16 -12 -29 -21 -15 -4 6 -2 17
4 24 6 7 9 15 6 18 -3 2 2 5 10 5 10 0 12 -4 6 -10z"/>
<path d="M1934 1118 l-19 -23 23 19 c21 18 27 26 19 26 -2 0 -12 -10 -23 -22z"/>
<path d="M875 680 c-3 -5 -1 -10 4 -10 6 0 11 5 11 10 0 6 -2 10 -4 10 -3 0
-8 -4 -11 -10z"/>
<path d="M853 625 c0 -8 4 -12 9 -9 5 3 6 10 3 15 -9 13 -12 11 -12 -6z"/>
<path d="M1586 702 c-3 -5 1 -17 8 -27 12 -17 13 -17 11 3 -2 26 -11 37 -19
24z"/>
<path d="M1655 741 c-3 -5 -2 -12 3 -15 5 -3 9 1 9 9 0 17 -3 19 -12 6z"/>
<path d="M1230 605 c-10 -12 -10 -15 2 -15 8 0 15 7 15 15 0 8 -1 15 -2 15 -2
0 -8 -7 -15 -15z"/>
<path d="M1123 536 c-16 -16 -18 -23 -7 -23 7 0 14 5 14 10 0 6 3 7 6 4 10 -9
46 12 39 24 -10 15 -29 10 -52 -15z"/>
<path d="M1350 2300 c0 -5 5 -10 11 -10 5 0 7 5 4 10 -3 6 -8 10 -11 10 -2 0
-4 -4 -4 -10z"/>
<path d="M1430 2110 c6 -11 13 -20 16 -20 2 0 0 9 -6 20 -6 11 -13 20 -16 20
-2 0 0 -9 6 -20z"/>
<path d="M1476 2047 c3 -10 9 -15 12 -12 3 3 0 11 -7 18 -10 9 -11 8 -5 -6z"/>
<path d="M1471 2002 c-7 -13 -6 -19 2 -19 7 0 13 9 13 19 0 10 -1 18 -3 18 -1
0 -7 -8 -12 -18z"/>
<path d="M1020 1980 c-9 -6 -10 -10 -3 -10 6 0 15 5 18 10 8 12 4 12 -15 0z"/>
<path d="M894 1956 c1 -8 5 -18 8 -22 4 -3 5 1 4 10 -1 8 -5 18 -8 22 -4 3 -5
-1 -4 -10z"/>
<path d="M1556 1953 c-6 -14 -5 -15 5 -6 7 7 10 15 7 18 -3 3 -9 -2 -12 -12z"/>
<path d="M1480 1940 c20 -13 33 -13 25 0 -3 6 -14 10 -23 10 -15 0 -15 -2 -2
-10z"/>
<path d="M1037 1929 c7 -7 15 -10 18 -7 3 3 -2 9 -12 12 -14 6 -15 5 -6 -5z"/>
<path d="M1700 1926 c0 -2 8 -10 18 -17 15 -13 16 -12 3 4 -13 16 -21 21 -21
13z"/>
<path d="M1496 1911 c-3 -4 6 -6 21 -3 19 4 24 2 18 -8 -5 -9 -4 -11 4 -6 6 4
9 12 6 17 -8 11 -42 12 -49 0z"/>
<path d="M895 1900 c-3 -5 -1 -10 4 -10 6 0 11 5 11 10 0 6 -2 10 -4 10 -3 0
-8 -4 -11 -10z"/>
<path d="M956 1902 c-2 -4 -1 -14 4 -22 7 -11 9 -9 7 8 -1 24 -3 26 -11 14z"/>
<path d="M1013 1892 c0 -12 5 -22 9 -22 11 0 10 12 -2 30 -7 12 -9 10 -7 -8z"/>
<path d="M1556 1891 c-3 -4 1 -17 10 -27 14 -18 15 -18 5 2 -6 12 -7 24 -4 28
3 3 4 6 0 6 -3 0 -8 -4 -11 -9z"/>
<path d="M716 1853 c-6 -14 -5 -15 5 -6 7 7 10 15 7 18 -3 3 -9 -2 -12 -12z"/>
<path d="M1527 1856 c-12 -9 -14 -16 -7 -21 5 -3 8 -10 5 -15 -3 -5 -1 -11 5
-15 6 -4 8 -10 5 -15 -3 -5 -1 -11 5 -15 6 -4 8 -10 5 -15 -3 -5 -1 -11 4 -15
6 -3 8 -12 5 -19 -3 -7 3 -19 13 -27 16 -13 17 -12 5 3 -14 18 -7 43 9 33 5
-4 9 -1 9 5 0 6 5 8 10 5 6 -3 10 -1 10 5 0 7 -8 9 -22 4 -21 -6 -21 -5 -9 10
8 9 20 15 27 12 18 -7 29 13 15 27 -9 9 -10 7 -5 -7 5 -14 4 -17 -5 -12 -6 4
-18 2 -26 -4 -18 -15 -20 1 -3 18 9 9 9 12 0 12 -7 0 -12 -4 -12 -10 0 -5 -5
-10 -11 -10 -5 0 -8 4 -4 9 3 5 -2 16 -10 24 -19 20 -19 31 -1 24 10 -4 13 -1
9 9 -3 7 -6 14 -7 14 0 0 -9 -7 -19 -14z m39 -102 c1 -9 -1 -13 -4 -9 -4 4 -7
10 -7 13 0 4 -4 14 -9 22 -7 12 -6 13 4 3 8 -7 15 -20 16 -29z"/>
<path d="M1730 1859 c0 -5 5 -7 10 -4 6 3 10 8 10 11 0 2 -4 4 -10 4 -5 0 -10
-5 -10 -11z"/>
<path d="M1025 1850 c6 -10 4 -12 -7 -7 -22 8 -56 -17 -38 -28 9 -5 11 -4 6 3
-7 11 5 16 31 13 17 -2 25 16 12 25 -8 5 -9 3 -4 -6z"/>
<path d="M1590 1840 c0 -5 5 -10 10 -10 6 0 10 5 10 10 0 6 -4 10 -10 10 -5 0
-10 -4 -10 -10z"/>
<path d="M1646 1838 c3 -5 10 -6 15 -3 13 9 11 12 -6 12 -8 0 -12 -4 -9 -9z"/>
<path d="M879 1813 c-13 -16 -12 -17 4 -4 9 7 17 15 17 17 0 8 -8 3 -21 -13z"/>
<path d="M997 1800 c-6 -24 -7 -24 -21 -5 -8 11 -16 18 -19 15 -2 -3 3 -13 12
-22 20 -20 45 -9 39 18 -3 16 -5 15 -11 -6z"/>
<path d="M1639 1808 c14 -19 32 -15 30 5 0 8 -2 8 -6 -1 -4 -10 -8 -10 -21 0
-15 12 -16 11 -3 -4z"/>
<path d="M704 1802 c4 -3 14 -7 22 -8 9 -1 13 0 10 4 -4 3 -14 7 -22 8 -9 1
-13 0 -10 -4z"/>
<path d="M906 1797 c3 -10 9 -15 12 -12 3 3 0 11 -7 18 -10 9 -11 8 -5 -6z"/>
<path d="M1756 1793 c-6 -14 -5 -15 5 -6 7 7 10 15 7 18 -3 3 -9 -2 -12 -12z"/>
<path d="M953 1772 c0 -11 4 -19 7 -17 12 7 28 -23 19 -36 -7 -12 -9 -12 -9 0
0 8 -3 11 -7 8 -3 -4 -12 1 -20 11 -14 16 -14 16 -9 0 6 -19 -9 -25 -17 -8 -3
6 -4 5 -3 -2 1 -7 12 -13 23 -14 11 -1 25 -4 31 -8 6 -4 16 3 22 14 6 11 8 20
4 20 -3 0 0 8 7 18 13 15 12 16 -3 4 -14 -11 -19 -10 -32 9 -15 22 -15 22 -13
1z"/>
<path d="M1716 1773 c-6 -14 -5 -15 5 -6 7 7 10 15 7 18 -3 3 -9 -2 -12 -12z"/>
<path d="M1790 1780 c0 -5 5 -10 11 -10 5 0 7 5 4 10 -3 6 -8 10 -11 10 -2 0
-4 -4 -4 -10z"/>
<path d="M855 1772 c18 -17 55 -24 55 -11 0 7 -3 10 -6 6 -3 -3 -18 -1 -33 4
-15 6 -22 6 -16 1z"/>
<path d="M1654 1763 c3 -18 -1 -23 -17 -24 -19 -1 -19 -2 -3 -6 25 -7 36 8 25
32 -9 18 -9 18 -5 -2z"/>
<path d="M654 1762 c4 -3 14 -7 22 -8 9 -1 13 0 10 4 -4 3 -14 7 -22 8 -9 1
-13 0 -10 -4z"/>
<path d="M730 1761 c0 -6 4 -13 10 -16 6 -3 7 1 4 9 -7 18 -14 21 -14 7z"/>
<path d="M1750 1759 c0 -5 5 -7 10 -4 6 3 10 8 10 11 0 2 -4 4 -10 4 -5 0 -10
-5 -10 -11z"/>
<path d="M827 1746 c-4 -10 -1 -13 8 -9 8 3 12 9 9 14 -7 12 -11 11 -17 -5z"/>
<path d="M545 1740 c-3 -6 1 -7 9 -4 18 7 21 14 7 14 -6 0 -13 -4 -16 -10z"/>
<path d="M1710 1733 c6 -13 15 -23 21 -23 6 0 7 -5 3 -12 -5 -7 -3 -8 5 -3 10
6 10 10 0 19 -7 6 -19 18 -27 26 -11 13 -12 12 -2 -7z"/>
<path d="M1799 1733 c-13 -16 -12 -17 4 -4 16 13 21 21 13 21 -2 0 -10 -8 -17
-17z"/>
<path d="M1833 1725 c0 -8 4 -12 9 -9 5 3 6 10 3 15 -9 13 -12 11 -12 -6z"/>
<path d="M670 1722 c0 -5 7 -9 15 -9 8 0 12 4 9 9 -3 4 -9 8 -15 8 -5 0 -9 -4
-9 -8z"/>
<path d="M736 1713 c-6 -14 -5 -15 5 -6 7 7 10 15 7 18 -3 3 -9 -2 -12 -12z"/>
<path d="M850 1720 c0 -5 5 -10 10 -10 6 0 10 5 10 10 0 6 -4 10 -10 10 -5 0
-10 -4 -10 -10z"/>
<path d="M1690 1721 c0 -6 4 -13 10 -16 6 -3 7 1 4 9 -7 18 -14 21 -14 7z"/>
<path d="M1870 1726 c0 -2 7 -7 16 -10 8 -3 12 -2 9 4 -6 10 -25 14 -25 6z"/>
<path d="M1950 1721 c0 -6 4 -13 10 -16 6 -3 7 1 4 9 -7 18 -14 21 -14 7z"/>
<path d="M898 1701 c13 -11 30 -17 39 -14 14 5 14 3 -1 -19 -9 -13 -13 -28 -9
-31 3 -4 1 -7 -5 -7 -7 0 -12 5 -12 10 0 6 -5 10 -12 10 -8 0 -6 -6 4 -17 15
-15 19 -15 40 -1 25 16 35 57 15 60 -7 0 -16 2 -22 2 -5 1 -21 8 -35 15 l-25
12 23 -20z m58 -38 c-2 -9 -9 -19 -17 -21 -11 -3 -11 -1 1 7 8 6 11 11 7 11
-5 0 -5 5 -2 10 9 15 14 12 11 -7z"/>
<path d="M695 1690 c-4 -6 -12 -7 -18 -4 -7 4 -8 3 -4 -1 13 -15 34 -14 34 1
0 17 -4 18 -12 4z"/>
<path d="M755 1690 c-3 -6 1 -7 9 -4 18 7 21 14 7 14 -6 0 -13 -4 -16 -10z"/>
<path d="M786 1684 c-11 -8 -16 -14 -10 -14 13 0 39 18 34 24 -3 2 -14 -2 -24
-10z"/>
<path d="M836 1685 c-3 -9 -2 -14 3 -10 5 3 11 -1 14 -7 2 -7 7 -11 10 -8 3 3
0 13 -8 23 -11 16 -13 16 -19 2z"/>
<path d="M870 1690 c0 -5 5 -10 11 -10 5 0 8 -4 5 -8 -2 -4 4 -8 15 -8 24 0
24 0 -6 20 -14 9 -25 12 -25 6z"/>
<path d="M1670 1688 c0 -6 3 -8 7 -5 3 4 11 -1 18 -10 10 -13 15 -14 31 -4 17
11 17 11 -5 5 -15 -4 -21 -2 -17 4 3 5 -1 13 -10 16 -22 8 -24 8 -24 -6z"/>
<path d="M1772 1690 c6 -18 75 -22 75 -4 0 7 -5 10 -11 6 -17 -10 -50 -9 -59
3 -5 6 -7 4 -5 -5z"/>
<path d="M1750 1660 c0 -5 5 -10 10 -10 6 0 10 5 10 10 0 6 -4 10 -10 10 -5 0
-10 -4 -10 -10z"/>
<path d="M1910 1661 c0 -6 4 -13 10 -16 6 -3 7 1 4 9 -7 18 -14 21 -14 7z"/>
<path d="M760 1645 c0 -8 4 -15 10 -15 5 0 7 7 4 15 -4 8 -8 15 -10 15 -2 0
-4 -7 -4 -15z"/>
<path d="M1844 1645 c-10 -8 -14 -15 -8 -15 6 0 17 7 24 15 16 19 9 19 -16 0z"/>
<path d="M1991 1647 c-8 -10 -7 -14 2 -14 8 0 14 6 14 14 0 7 -1 13 -2 13 -2
0 -8 -6 -14 -13z"/>
<path d="M416 1633 c-6 -14 -5 -15 5 -6 7 7 10 15 7 18 -3 3 -9 -2 -12 -12z"/>
<path d="M721 1643 c-1 -17 16 -25 25 -12 4 7 3 9 -4 5 -5 -3 -13 0 -15 6 -4
9 -6 10 -6 1z"/>
<path d="M1784 1641 c4 -5 1 -12 -4 -14 -6 -3 -5 -4 2 -3 15 3 23 26 8 26 -6
0 -9 -4 -6 -9z"/>
<path d="M1881 1634 c0 -11 3 -14 6 -6 3 7 2 16 -1 19 -3 4 -6 -2 -5 -13z"/>
<path d="M1950 1640 c0 -5 5 -10 10 -10 6 0 10 5 10 10 0 6 -4 10 -10 10 -5 0
-10 -4 -10 -10z"/>
<path d="M2356 1458 c3 -5 10 -6 15 -3 13 9 11 12 -6 12 -8 0 -12 -4 -9 -9z"/>
<path d="M2315 1439 c-3 -4 2 -6 10 -5 21 3 28 13 10 13 -9 0 -18 -4 -20 -8z"/>
<path d="M2275 1380 c-3 -5 -1 -10 4 -10 6 0 11 5 11 10 0 6 -2 10 -4 10 -3 0
-8 -4 -11 -10z"/>
<path d="M2230 1370 c0 -5 7 -7 15 -4 8 4 15 8 15 10 0 2 -7 4 -15 4 -8 0 -15
-4 -15 -10z"/>
<path d="M2211 1353 c-1 -17 16 -25 25 -12 4 7 3 9 -4 5 -5 -3 -13 0 -15 6 -4
9 -6 10 -6 1z"/>
<path d="M388 1303 c6 -2 10 -9 6 -14 -3 -5 0 -10 5 -10 6 -1 17 -2 24 -3 6
-1 11 -7 10 -14 -2 -7 2 -12 7 -12 6 0 10 4 10 9 0 11 -30 36 -30 25 0 -5 -5
-1 -11 9 -5 9 -15 17 -22 16 -9 0 -9 -2 1 -6z"/>
<path d="M460 1239 c0 -5 5 -7 12 -3 8 5 9 1 4 -12 -5 -14 -4 -16 5 -7 6 6 8
16 5 22 -9 14 -26 14 -26 0z"/>
<path d="M430 1236 c0 -2 8 -10 18 -17 15 -13 16 -12 3 4 -13 16 -21 21 -21
13z"/>
<path d="M2130 1219 c0 -5 5 -7 10 -4 6 3 10 8 10 11 0 2 -4 4 -10 4 -5 0 -10
-5 -10 -11z"/>
<path d="M515 1181 c2 -9 4 -19 4 -22 1 -3 8 -6 17 -6 14 0 14 2 -2 14 -17 12
-12 18 11 13 6 -1 6 2 2 6 -15 15 -35 12 -32 -5z"/>
<path d="M565 1161 c-2 -5 6 -14 20 -21 23 -12 24 -40 2 -40 -6 0 -7 3 -4 7 9
8 -12 33 -27 33 -6 0 -4 -5 4 -10 8 -5 15 -15 15 -21 0 -20 23 -21 33 -2 8 14
5 23 -14 40 -13 12 -26 18 -29 14z"/>
<path d="M515 1130 c-3 -6 1 -7 9 -4 18 7 21 14 7 14 -6 0 -13 -4 -16 -10z"/>
<path d="M2020 1120 c0 -5 7 -7 15 -4 8 4 15 8 15 10 0 2 -7 4 -15 4 -8 0 -15
-4 -15 -10z"/>
<path d="M2106 1118 c3 -5 10 -6 15 -3 13 9 11 12 -6 12 -8 0 -12 -4 -9 -9z"/>
<path d="M469 1083 c-13 -16 -12 -17 4 -4 9 7 17 15 17 17 0 8 -8 3 -21 -13z"/>
<path d="M597 1069 c7 -7 15 -10 18 -7 3 3 -2 9 -12 12 -14 6 -15 5 -6 -5z"/>
<path d="M657 1073 c-15 -14 -6 -24 16 -18 21 7 21 7 4 -11 -18 -19 -19 -18
-33 0 -8 11 -14 16 -14 10 1 -20 27 -43 37 -33 7 7 15 2 27 -16 19 -28 14 -43
-17 -54 -13 -5 -21 -17 -21 -34 -1 -14 2 -23 7 -20 5 3 6 14 4 25 -3 11 -1 18
5 16 6 -2 27 11 46 30 28 25 34 35 24 41 -8 5 -14 12 -14 17 -1 5 -15 19 -31
32 -35 25 -32 24 -40 15z m67 -54 c-2 -4 0 -10 6 -14 6 -4 8 -11 4 -16 -9 -15
-34 10 -27 27 3 8 2 14 -3 13 -18 -3 -25 1 -19 11 4 6 13 5 25 -2 10 -7 17
-15 14 -19z"/>
<path d="M1872 1075 c4 -4 3 -14 -2 -20 -8 -9 -6 -14 5 -18 9 -4 12 -13 9 -24
-5 -15 -4 -16 5 -3 9 13 15 8 12 -12 -1 -8 39 -1 48 8 3 4 -1 5 -11 1 -9 -3
-23 2 -32 12 -23 25 -20 38 4 16 11 -10 20 -14 19 -9 0 5 -14 20 -32 33 -18
14 -29 21 -25 16z"/>
<path d="M2033 1065 c0 -8 4 -12 9 -9 5 3 6 10 3 15 -9 13 -12 11 -12 -6z"/>
<path d="M560 1055 c-7 -8 -17 -12 -23 -8 -6 4 -7 1 -3 -6 5 -7 10 -10 13 -7
3 3 15 1 27 -5 20 -10 20 -10 2 5 -18 15 -15 21 7 17 5 -1 6 3 2 9 -8 13 -10
13 -25 -5z"/>
<path d="M1957 1055 c-4 -8 -3 -16 1 -19 4 -3 9 4 9 15 2 23 -3 25 -10 4z"/>
<path d="M500 1046 c0 -2 8 -10 18 -17 15 -13 16 -12 3 4 -13 16 -21 21 -21
13z"/>
<path d="M616 1022 c-3 -5 4 -16 15 -25 10 -9 19 -12 19 -7 0 6 -7 13 -15 16
-8 4 -12 10 -9 15 3 5 3 9 0 9 -3 0 -7 -4 -10 -8z"/>
<path d="M516 1002 c-3 -5 1 -9 9 -9 8 0 12 4 9 9 -3 4 -7 8 -9 8 -2 0 -6 -4
-9 -8z"/>
<path d="M580 993 c-11 -14 -11 -16 0 -6 10 10 16 9 25 -4 10 -13 13 -14 20
-2 5 8 5 11 0 7 -4 -4 -13 -1 -20 8 -10 14 -12 14 -25 -3z"/>
<path d="M670 998 c0 -9 5 -20 10 -23 13 -8 13 5 0 25 -8 13 -10 13 -10 -2z"/>
<path d="M1948 971 c4 -10 1 -12 -8 -6 -9 6 -11 4 -6 -4 6 -9 13 -8 27 5 23
21 23 20 0 20 -12 0 -17 -5 -13 -15z"/>
<path d="M617 958 c-7 -5 0 -6 17 -4 16 3 31 7 33 10 8 8 -37 2 -50 -6z"/>
<path d="M1979 953 c-13 -16 -12 -17 4 -4 16 13 21 21 13 21 -2 0 -10 -8 -17
-17z"/>
<path d="M1928 933 c-10 -2 -18 -8 -18 -13 0 -4 8 -14 18 -21 14 -11 15 -11 5
1 -10 11 -9 16 5 26 18 14 17 14 -10 7z"/>
<path d="M515 921 c-3 -5 -2 -12 3 -15 5 -3 9 1 9 9 0 17 -3 19 -12 6z"/>
<path d="M616 911 c-4 -5 3 -7 14 -4 23 6 26 13 6 13 -8 0 -17 -4 -20 -9z"/>
<path d="M1969 883 c-13 -16 -12 -17 4 -4 16 13 21 21 13 21 -2 0 -10 -8 -17
-17z"/>
<path d="M610 881 c0 -6 4 -13 10 -16 6 -3 7 1 4 9 -7 18 -14 21 -14 7z"/>
<path d="M660 879 c-12 -9 -12 -10 3 -5 11 3 24 3 30 -1 7 -4 2 -9 -13 -13
l-25 -6 26 -6 c27 -5 31 4 16 30 -10 15 -17 15 -37 1z"/>
<path d="M1995 880 c-3 -5 -1 -10 4 -10 6 0 11 5 11 10 0 6 -2 10 -4 10 -3 0
-8 -4 -11 -10z"/>
<path d="M2030 886 c0 -2 7 -7 16 -10 8 -3 12 -2 9 4 -6 10 -25 14 -25 6z"/>
<path d="M1848 858 c18 -19 20 -27 10 -31 -7 -3 -8 -6 -2 -6 6 -1 18 7 25 16
12 14 12 16 0 8 -11 -6 -13 -4 -8 9 4 10 3 15 -4 11 -5 -4 -18 -1 -27 6 -9 8
-7 2 6 -13z"/>
<path d="M1940 866 c0 -2 8 -10 18 -17 15 -13 16 -12 3 4 -13 16 -21 21 -21
13z"/>
<path d="M1920 846 c0 -2 8 -10 18 -17 15 -13 16 -12 3 4 -13 16 -21 21 -21
13z"/>
<path d="M1895 831 c-6 -11 13 -26 22 -17 4 3 1 6 -6 6 -7 0 -9 5 -6 10 3 6 4
10 1 10 -3 0 -7 -4 -11 -9z"/>
<path d="M668 823 c6 -2 18 -2 25 0 6 3 1 5 -13 5 -14 0 -19 -2 -12 -5z"/>
<path d="M626 801 c-3 -4 4 -7 14 -6 27 2 33 10 10 12 -11 1 -22 -2 -24 -6z"/>
<path d="M1901 781 c-37 -35 -37 -36 -8 -38 12 0 16 1 10 4 -7 3 -13 9 -13 14
0 6 5 7 12 3 7 -5 8 -3 3 6 -6 10 -4 12 11 6 10 -4 15 -4 11 0 -4 4 -2 13 4
21 20 23 2 14 -30 -16z"/>
<path d="M1977 795 c-4 -8 -3 -16 1 -19 4 -3 9 4 9 15 2 23 -3 25 -10 4z"/>
<path d="M550 779 c0 -5 5 -7 10 -4 6 3 10 8 10 11 0 2 -4 4 -10 4 -5 0 -10
-5 -10 -11z"/>
<path d="M2015 760 c3 -5 8 -10 11 -10 2 0 4 5 4 10 0 6 -5 10 -11 10 -5 0 -7
-4 -4 -10z"/>
<path d="M634 688 c0 -10 1 -18 3 -18 1 0 7 8 12 18 7 13 6 19 -2 19 -7 0 -13
-9 -13 -19z"/>
<path d="M1910 682 c0 -5 7 -9 15 -9 8 0 15 4 15 9 0 4 -7 8 -15 8 -8 0 -15
-4 -15 -8z"/>
<path d="M1906 649 c7 -12 41 -16 41 -5 0 6 -10 11 -23 11 -12 0 -20 -3 -18
-6z"/>
<path d="M1302 585 c-10 -21 -9 -23 5 -18 12 5 14 3 8 -8 -7 -11 -5 -11 10 1
17 14 17 13 10 -9 -5 -16 -4 -21 4 -17 16 10 13 43 -5 50 -8 3 -12 10 -9 16 3
5 2 10 -3 10 -5 0 -14 -11 -20 -25z"/>
<path d="M1936 581 c-4 -5 3 -7 14 -4 23 6 26 13 6 13 -8 0 -17 -4 -20 -9z"/>
<path d="M1310 531 c0 -7 -5 -9 -12 -5 -7 5 -8 3 -3 -5 5 -9 10 -10 18 -2 6 6
8 14 4 18 -4 3 -7 1 -7 -6z"/>
<path d="M1270 510 c0 -5 5 -10 11 -10 5 0 7 5 4 10 -3 6 -8 10 -11 10 -2 0
-4 -4 -4 -10z"/>
<path d="M1234 496 c4 -10 1 -26 -6 -35 -11 -14 -10 -14 6 0 15 14 16 20 6 35
-11 18 -11 18 -6 0z"/>
<path d="M1300 491 c0 -6 4 -13 10 -16 6 -3 7 1 4 9 -7 18 -14 21 -14 7z"/>
<path d="M1027 477 c-3 -9 -1 -20 5 -23 7 -4 14 -2 16 4 2 7 8 10 13 7 5 -4 6
1 2 10 -4 12 -8 13 -13 5 -6 -9 -9 -9 -12 1 -3 9 -6 8 -11 -4z"/>
<path d="M1197 475 c-4 -8 -3 -16 1 -19 4 -3 9 4 9 15 2 23 -3 25 -10 4z"/>
<path d="M1370 480 c0 -5 5 -10 10 -10 6 0 10 5 10 10 0 6 -4 10 -10 10 -5 0
-10 -4 -10 -10z"/>
<path d="M1965 480 c-3 -5 -1 -10 4 -10 6 0 11 5 11 10 0 6 -2 10 -4 10 -3 0
-8 -4 -11 -10z"/>
<path d="M1104 464 c-18 -14 -18 -15 4 -4 12 6 22 13 22 15 0 8 -5 6 -26 -11z"/>
<path d="M1516 465 c-9 -26 -7 -32 5 -12 6 10 9 21 6 23 -2 3 -7 -2 -11 -11z"/>
<path d="M992 458 c-7 -7 -12 -18 -12 -26 0 -7 -5 -10 -10 -7 -6 4 -7 11 -4
17 4 7 2 8 -5 4 -6 -4 -18 -22 -27 -39 l-16 -32 21 23 c12 12 27 20 32 16 6
-3 13 3 16 15 3 12 10 21 15 21 5 0 7 -4 3 -9 -3 -5 -1 -12 4 -16 6 -3 8 4 6
16 -6 29 -9 31 -23 17z"/>
<path d="M1276 462 c-3 -5 1 -9 9 -9 8 0 12 4 9 9 -3 4 -7 8 -9 8 -2 0 -6 -4
-9 -8z"/>
<path d="M1473 455 c0 -8 4 -12 9 -9 5 3 6 10 3 15 -9 13 -12 11 -12 -6z"/>
<path d="M1537 456 c-4 -10 -1 -13 8 -9 8 3 12 9 9 14 -7 12 -11 11 -17 -5z"/>
<path d="M1065 440 c3 -5 8 -10 11 -10 2 0 4 5 4 10 0 6 -5 10 -11 10 -5 0 -7
-4 -4 -10z"/>
<path d="M1101 436 c-9 -11 -9 -16 1 -22 7 -4 10 -4 6 1 -4 4 -3 14 3 22 6 7
9 13 6 13 -2 0 -10 -6 -16 -14z"/>
<path d="M1240 440 c-9 -6 -10 -10 -3 -10 6 0 15 5 18 10 8 12 4 12 -15 0z"/>
<path d="M1033 415 c0 -8 4 -12 9 -9 4 3 8 9 8 15 0 5 -4 9 -8 9 -5 0 -9 -7
-9 -15z"/>
<path d="M1516 418 c3 -5 10 -6 15 -3 13 9 11 12 -6 12 -8 0 -12 -4 -9 -9z"/>
<path d="M1590 410 c-6 -11 -8 -20 -6 -20 3 0 10 9 16 20 6 11 8 20 6 20 -3 0
-10 -9 -16 -20z"/>
<path d="M1235 411 c-3 -5 -2 -12 3 -15 5 -3 9 1 9 9 0 17 -3 19 -12 6z"/>
<path d="M1133 391 c0 -11 5 -18 9 -15 4 3 5 11 1 19 -7 21 -12 19 -10 -4z"/>
<path d="M1290 399 c0 -5 5 -7 10 -4 6 3 10 8 10 11 0 2 -4 4 -10 4 -5 0 -10
-5 -10 -11z"/>
<path d="M1430 401 c0 -6 4 -13 10 -16 6 -3 7 1 4 9 -7 18 -14 21 -14 7z"/>
<path d="M1093 385 c0 -8 4 -12 9 -9 5 3 6 10 3 15 -9 13 -12 11 -12 -6z"/>
<path d="M1633 385 c0 -8 4 -15 9 -15 4 0 8 4 8 9 0 6 -4 12 -8 15 -5 3 -9 -1
-9 -9z"/>
<path d="M875 370 c-10 -11 -15 -23 -12 -27 4 -3 7 -1 7 6 0 7 5 9 10 6 6 -4
9 -1 8 7 -2 7 3 12 10 11 6 -2 12 2 12 7 0 16 -15 12 -35 -10z"/>
<path d="M1334 382 c4 -3 14 -7 22 -8 9 -1 13 0 10 4 -4 3 -14 7 -22 8 -9 1
-13 0 -10 -4z"/>
<path d="M790 308 c-12 -22 -12 -22 6 -6 10 10 15 20 12 24 -4 3 -12 -5 -18
-18z"/>
<path d="M675 229 c-4 -6 -5 -12 -2 -15 2 -3 7 2 10 11 7 17 1 20 -8 4z"/>
<path d="M633 215 c0 -8 4 -12 9 -9 5 3 6 10 3 15 -9 13 -12 11 -12 -6z"/>
</g>
</svg>
